<svg width="40" height="40" viewBox="0 0 40 40" fill="none" xmlns="http://www.w3.org/2000/svg">
<path d="M9.6842 19.0033C9.13192 19.0033 8.6842 19.451 8.6842 20.0033C8.6842 20.5556 9.13192 21.0033 9.6842 21.0033V20.0033V19.0033ZM20.7074 20.7068C21.0978 20.3161 21.0975 19.6829 20.7068 19.2926L14.34 12.9315C13.9493 12.5411 13.3161 12.5414 12.9258 12.9321C12.5354 13.3228 12.5357 13.956 12.9264 14.3463L18.5858 20.0006L12.9315 25.66C12.5411 26.0507 12.5414 26.6839 12.9321 27.0743C13.3228 27.4646 13.956 27.4643 14.3463 27.0736L20.7074 20.7068ZM9.6842 20.0033V21.0033C11.1714 21.0033 13.7506 21.0025 15.9577 21.0017C17.0613 21.0012 18.072 21.0008 18.8068 21.0005C19.1742 21.0004 19.4726 21.0002 19.6792 21.0001C19.7825 21.0001 19.8628 21.0001 19.9173 21C19.9445 21 19.9653 21 19.9793 21C19.9863 21 19.9916 21 19.9951 21C19.9969 21 19.9982 21 19.9991 21C19.9996 21 19.9999 21 20.0001 21C20.0002 21 20.0003 21 20.0004 21C20.0004 21 20.0005 21 20 20C19.9996 19 19.9995 19 19.9995 19C19.9994 19 19.9993 19 19.9992 19C19.999 19 19.9987 19 19.9982 19C19.9973 19 19.996 19 19.9942 19C19.9907 19 19.9854 19 19.9784 19C19.9644 19 19.9436 19 19.9164 19C19.8619 19.0001 19.7816 19.0001 19.6783 19.0001C19.4717 19.0002 19.1733 19.0004 18.806 19.0005C18.0712 19.0008 17.0606 19.0012 15.957 19.0017C13.7497 19.0025 11.171 19.0033 9.6842 19.0033V20.0033Z" fill="#222222"/>
<path d="M25.3086 9.85352C28.4787 10.0142 30.9998 12.6357 31 15.8457V24.1533L30.9922 24.4619C30.8368 27.53 28.3766 29.99 25.3086 30.1455L25 30.1533H18.3076V28.1533H25C27.2091 28.1532 29 26.3624 29 24.1533V15.8457C28.9998 13.7059 27.3192 11.9579 25.2061 11.8506L25 11.8457H18.3076V9.8457H25L25.3086 9.85352Z" fill="#222222"/>
</svg>
