<svg width="189" height="18" viewBox="0 0 189 18" fill="none" xmlns="http://www.w3.org/2000/svg">
<path d="M10.3359 5.70117V6.75391H1.92773V3.08984H3.19922V5.70117H10.3359ZM0.4375 8.87305V7.83398H11.6484V8.87305H0.4375ZM1.80469 10.8691V9.85742H10.2402V12.8516H3.13086V13.9863H10.6641V15.0117H1.83203V11.8945H8.95508V10.8691H1.80469ZM23.7207 8.95508V10.0215H12.5508V8.95508H17.4863V7.72461H14.0137V3.17188H15.2988V4.4707H20.9727V3.17188H22.2715V7.72461H18.7715V8.95508H23.7207ZM13.8906 15.0117V11.0332H22.3535V15.0117H13.8906ZM15.1758 13.959H21.0957V12.0586H15.1758V13.959ZM15.2988 6.68555H20.9727V5.45508H15.2988V6.68555ZM27.9727 3.82812C29.0938 3.83496 30.0098 4.4707 30.5498 5.57812H33.5781V2.91211H34.8633V15.1895H33.5781V10.4863H30.6387C30.1123 11.7168 29.1553 12.4346 27.9727 12.4277C26.1475 12.4346 24.8555 10.7666 24.8691 8.12109C24.8555 5.50293 26.1475 3.83496 27.9727 3.82812ZM26.0996 8.12109C26.1064 10.0693 26.8652 11.2656 27.9727 11.2656C29.0801 11.2656 29.8389 10.0693 29.8457 8.12109C29.8389 6.2002 29.0801 4.99707 27.9727 4.99023C26.8652 4.99707 26.1064 6.2002 26.0996 8.12109ZM30.9189 6.64453C31.0146 7.0957 31.0762 7.58789 31.0762 8.12109C31.0762 8.58594 31.0352 9.0166 30.9531 9.41992H33.5781V6.64453H30.9189ZM47.9473 9.1875V10.2266H36.7363V9.1875H47.9473ZM38.1445 4.21094V3.18555H46.5391V6.20703H39.457V7.25977H46.7852V8.25781H38.1719V5.25H45.2402V4.21094H38.1445ZM38.2266 15.0117V11.2246H46.5527V15.0117H38.2266ZM39.5117 13.959H45.2676V12.2637H39.5117V13.959ZM58.3926 2.91211V7.79297H60.293V8.87305H58.3926V15.1484H57.0938V2.91211H58.3926ZM48.8633 11.8809C51.9326 10.3496 53.6006 8.13477 53.8672 5.27734H49.4785V4.19727H55.1934C55.1797 7.73828 53.6211 10.9033 49.5879 12.8926L48.8633 11.8809ZM66.5273 3.11719C69.2891 3.11035 70.8955 3.85547 70.9023 5.22266C70.8955 6.59668 69.2891 7.3418 66.5273 7.3418C63.7656 7.3418 62.1455 6.59668 62.1523 5.22266C62.1455 3.85547 63.7656 3.11035 66.5273 3.11719ZM60.9492 9.13281V8.09375H72.1191V9.13281H60.9492ZM62.2891 11.0469V10.0762H70.7109V12.9473H63.5742V14.041H71.0527V15.0391H62.3027V12.0039H69.4258V11.0469H62.2891ZM63.5059 5.22266C63.499 5.98145 64.5791 6.37109 66.5273 6.37109C68.4893 6.37109 69.5693 5.98145 69.5625 5.22266C69.5693 4.49805 68.4893 4.07422 66.5273 4.07422C64.5791 4.07422 63.499 4.49805 63.5059 5.22266ZM79.2832 4.22461C79.2832 4.90137 79.2285 5.56445 79.1055 6.20703H81.9629V2.89844H83.248V15.1484H81.9629V10.5547H78.668V9.48828H81.9629V7.24609H78.8594C78.1621 9.52246 76.5762 11.498 73.6914 12.9062L73.0078 11.8672C76.1592 10.3154 77.7314 8.09375 77.9775 5.26367H73.5684V4.22461H79.2832ZM90.7266 3.04883C93.4883 3.04199 95.0947 3.80078 95.1016 5.1543C95.0947 6.52832 93.4883 7.27344 90.7266 7.27344C87.9648 7.27344 86.3447 6.52832 86.3516 5.1543C86.3447 3.80078 87.9648 3.04199 90.7266 3.04883ZM85.1484 9.02344V7.99805H96.3184V9.02344H91.3691V10.0762H94.9102V12.9473H87.7734V14.041H95.252V15.0391H86.502V12.0039H93.625V11.0469H86.4883V10.0762H90.0703V9.02344H85.1484ZM87.7051 5.1543C87.6982 5.91309 88.7783 6.2959 90.7266 6.30273C92.6885 6.2959 93.7686 5.91309 93.7617 5.1543C93.7686 4.43652 92.6885 4.02637 90.7266 4.01953C88.7783 4.02637 87.6982 4.43652 87.7051 5.1543Z" fill="#444444"/>
<rect x="107" y="3" width="1" height="12" fill="black" fill-opacity="0.2"/>
<path d="M118.615 12.25V10.623L122.799 4.10156H125.383V10.5957H126.641V12.25H125.383V14H123.428V12.25H118.615ZM120.693 10.5957H123.455V6.35742H123.359L120.693 10.5137V10.5957ZM128.363 14L132.533 5.85156V5.7832H127.68V4.10156H134.666V5.81055L130.496 14H128.363ZM140.299 4.10156V14H138.234V6.05664H138.18L135.91 7.47852V5.66016L138.357 4.10156H140.299ZM144.277 12.9883L143.102 16.8848H141.652L142.336 12.9883H144.277ZM146.082 14L146.068 12.5098L149.623 9.24219C150.546 8.36035 151.045 7.81348 151.045 7.02734C151.045 6.14551 150.382 5.59863 149.473 5.60547C148.543 5.59863 147.935 6.18652 147.941 7.13672H145.986C145.979 5.20215 147.415 3.96484 149.5 3.96484C151.619 3.96484 153.027 5.1748 153.027 6.89062C153.027 8.01855 152.48 8.94141 150.443 10.7871L148.939 12.25V12.3047H153.164V14H146.082ZM158.291 14.1367C156.117 14.1367 154.559 12.9404 154.518 11.2109H156.596C156.63 11.9492 157.348 12.4346 158.305 12.4414C159.289 12.4346 159.993 11.8877 159.986 11.0879C159.993 10.2812 159.275 9.71387 158.113 9.70703H157.197V8.18945H158.113C159.091 8.18945 159.774 7.65625 159.768 6.87695C159.774 6.11816 159.193 5.59863 158.318 5.60547C157.443 5.59863 156.726 6.09082 156.691 6.84961H154.723C154.757 5.14746 156.288 3.96484 158.318 3.96484C160.383 3.96484 161.757 5.18848 161.75 6.75391C161.757 7.86133 160.984 8.64746 159.877 8.8457V8.92773C161.333 9.10547 162.133 9.9873 162.119 11.2246C162.133 12.9199 160.526 14.1367 158.291 14.1367ZM163.404 12.25V10.623L167.588 4.10156H170.172V10.5957H171.43V12.25H170.172V14H168.217V12.25H163.404ZM165.482 10.5957H168.244V6.35742H168.148L165.482 10.5137V10.5957Z" fill="#F47A00"/>
<rect x="175" y="2" width="14" height="14" rx="7" fill="#F47A00"/>
<path d="M182.27 10.6937H180.855V12.7527H179.229V5.36133H182.27C182.889 5.36133 183.428 5.47044 183.885 5.68866C184.343 5.90688 184.695 6.21661 184.941 6.61786C185.194 7.0191 185.321 7.49426 185.321 8.04333C185.321 8.59241 185.194 9.06757 184.941 9.46881C184.688 9.86302 184.332 10.1657 183.875 10.3769L185.448 12.7527H183.706L182.343 10.6937H182.27ZM182.174 9.33154C182.66 9.33154 183.03 9.21891 183.283 8.99365C183.544 8.76839 183.674 8.45162 183.674 8.04333C183.674 7.63505 183.547 7.31828 183.294 7.09302C183.04 6.86776 182.667 6.75513 182.174 6.75513H180.855V9.33154H182.174Z" fill="white"/>
</svg>
