<svg width="33" height="33" viewBox="0 0 33 33" fill="none" xmlns="http://www.w3.org/2000/svg">
<path d="M16.5 0C20.5519 8.80008e-05 24.2619 1.46142 27.1338 3.88477H20.6768V15.8848H23.916V12.6221H26.5635L28.2227 15.8848H31.5537L29.5918 11.9375C30.1712 11.534 30.6058 11.0075 30.8955 10.3584C31.0732 9.96684 31.1957 9.55935 31.2676 9.13672C32.375 11.3534 33 13.8536 33 16.5C33 25.6126 25.6125 32.9998 16.5 33C7.3873 33 0 25.6127 0 16.5C0 7.3873 7.3873 0 16.5 0ZM9 3.88477V12.9902C9.00002 13.4286 9.07057 13.8231 9.21094 14.1738C9.35138 14.5334 9.54427 14.8364 9.79004 15.082C10.0446 15.3364 10.3481 15.5335 10.6992 15.6738C11.0591 15.8141 11.4586 15.8848 11.8975 15.8848H19.0215V13.1738H13.0293C12.7924 13.1738 12.5994 13.1041 12.4502 12.9639C12.3097 12.8147 12.2393 12.6216 12.2393 12.3848V11.082H18.8896V8.42383H12.2393V6.5957H19.0215V3.88477H9ZM26.458 6.54297C26.9583 6.54304 27.3578 6.70088 27.6562 7.0166C27.9545 7.32354 28.1035 7.73565 28.1035 8.25293C28.1035 8.77033 27.9546 9.18717 27.6562 9.50293C27.3578 9.80988 26.9583 9.9638 26.458 9.96387H23.916V6.54297H26.458Z" fill="#00802B"/>
</svg>
