<svg width="76" height="14" viewBox="0 0 76 14" fill="none" xmlns="http://www.w3.org/2000/svg">
<path d="M3.30566 0C3.85281 4.09749e-05 4.33036 0.0800966 4.73828 0.240234C5.1563 0.400464 5.50452 0.63121 5.7832 0.931641C6.06188 1.22206 6.26612 1.57745 6.39551 1.99805C6.53482 2.4086 6.60449 2.86921 6.60449 3.37988V5.19727H7.2168V0.150391H10.2021V13.8496H7.2168V8.05176H6.60449V10.6201C6.60449 11.1308 6.53481 11.5914 6.39551 12.002C6.26613 12.4225 6.06187 12.7779 5.7832 13.0684C5.50452 13.3688 5.1563 13.5995 4.73828 13.7598C4.33036 13.9199 3.85282 14 3.30566 14C2.74844 14 2.26543 13.9199 1.85742 13.7598C1.44935 13.5995 1.10583 13.3688 0.827148 13.0684C0.548516 12.778 0.33952 12.4225 0.200195 12.002C0.0708389 11.5914 0.00585938 11.1308 0.00585938 10.6201V3.37988C0.00585938 2.86919 0.0708277 2.40861 0.200195 1.99805C0.339524 1.57748 0.548502 1.22204 0.827148 0.931641C1.10583 0.63121 1.44935 0.400464 1.85742 0.240234C2.26542 0.0800883 2.74845 0 3.30566 0ZM13.7412 13.8496H10.7549V0.150391H13.7412V13.8496ZM29.418 13.8496H15.3848V10.8457H29.418V13.8496ZM36.6748 0.150391C37.1525 0.150391 37.5902 0.250928 37.9883 0.451172C38.3864 0.641444 38.7252 0.916827 39.0039 1.27734C39.2825 1.63781 39.4962 2.07337 39.6455 2.58398C39.8047 3.0847 39.8848 3.64572 39.8848 4.2666C39.8847 4.88737 39.8047 5.45322 39.6455 5.96387C39.4962 6.4645 39.2825 6.89539 39.0039 7.25586C38.7252 7.61631 38.3863 7.89642 37.9883 8.09668C37.5902 8.28688 37.1524 8.38184 36.6748 8.38184H35.6895C35.2814 8.38184 34.9529 8.50283 34.7041 8.74316C34.4654 8.98348 34.3457 9.29904 34.3457 9.68945C34.3458 10.0798 34.4653 10.3955 34.7041 10.6357C34.9529 10.876 35.2815 10.9961 35.6895 10.9961H41.2129V0.150391H44.6475V13.8496H34.5547C34.0073 13.8496 33.5094 13.7501 33.0615 13.5498C32.6138 13.3595 32.2305 13.0841 31.9121 12.7236C31.5936 12.3631 31.3452 11.9323 31.166 11.4316C30.9968 10.921 30.9121 10.3552 30.9121 9.73438C30.9121 9.11349 30.9968 8.55247 31.166 8.05176C31.3451 7.54116 31.5937 7.10558 31.9121 6.74512C32.2305 6.38472 32.6138 6.10921 33.0615 5.91895C33.5094 5.71868 34.0073 5.61819 34.5547 5.61816H35.1074C35.5154 5.61813 35.8393 5.50837 36.0781 5.28809C36.3269 5.05776 36.4512 4.7516 36.4512 4.37109C36.4511 3.95075 36.3268 3.62015 36.0781 3.37988C35.8393 3.12956 35.5154 3.00492 35.1074 3.00488H31.2109V0.150391H36.6748ZM55.874 10.3955H52.6338V13.8496H49.2002V10.3955H46.5879V7.54102H55.874V10.3955ZM60.1738 13.8496H53.5303V11.1465H56.7393V0.150391H60.1738V13.8496ZM76 13.8496H61.9658V10.8457H76V13.8496ZM3.30566 2.85449C3.09665 2.85449 2.99219 2.98938 2.99219 3.25977V10.7402C2.99219 11.0106 3.09665 11.1455 3.30566 11.1455C3.51439 11.1453 3.61914 11.0104 3.61914 10.7402V3.25977C3.61914 2.98956 3.51439 2.85467 3.30566 2.85449ZM18.8184 2.10352H25.9844V0.150391H29.418V9.34375H18.6689C18.1714 9.34372 17.7185 9.26371 17.3105 9.10352C16.9124 8.94329 16.5689 8.72278 16.2803 8.44238C16.0017 8.15211 15.7832 7.80657 15.624 7.40625C15.4648 6.99573 15.3848 6.53969 15.3848 6.03906V0.150391H18.8184V2.10352ZM76 3.1543H65.3994V5.1377C65.3995 5.40796 65.4795 5.62864 65.6387 5.79883C65.8078 5.95888 66.0273 6.03906 66.2959 6.03906H76V9.04297H65.25C64.7525 9.04292 64.2996 8.96292 63.8916 8.80273C63.4936 8.64251 63.1499 8.42196 62.8613 8.1416C62.5828 7.85131 62.3643 7.5058 62.2051 7.10547C62.0458 6.69488 61.9658 6.239 61.9658 5.73828V0.150391H76V3.1543ZM51.6191 0.150391C52.256 0.150409 52.8435 0.210902 53.3809 0.331055C53.9179 0.451186 54.3806 0.645871 54.7686 0.916016C55.1665 1.1763 55.4754 1.5171 55.6943 1.9375C55.9132 2.35801 56.0234 2.86905 56.0234 3.46973C56.0234 4.07048 55.9132 4.58139 55.6943 5.00195C55.4754 5.42256 55.1667 5.76868 54.7686 6.03906C54.3806 6.29925 53.918 6.48924 53.3809 6.60938C52.8435 6.72953 52.256 6.79002 51.6191 6.79004H50.6934C50.0564 6.79004 49.4691 6.72954 48.9316 6.60938C48.3943 6.48922 47.9264 6.29937 47.5283 6.03906C47.1402 5.76868 46.8362 5.42256 46.6172 5.00195C46.3984 4.58143 46.2891 4.07038 46.2891 3.46973C46.2891 2.86905 46.3983 2.35801 46.6172 1.9375C46.8361 1.517 47.1402 1.17634 47.5283 0.916016C47.9264 0.645736 48.3943 0.451197 48.9316 0.331055C49.4691 0.210883 50.0564 0.150391 50.6934 0.150391H51.6191ZM18.8184 5.73828C18.8184 6.00867 18.8984 6.22917 19.0576 6.39941C19.2267 6.55946 19.4454 6.63957 19.7139 6.63965H25.9844V4.80664H18.8184V5.73828ZM50.6182 2.85449C50.3596 2.85454 50.1457 2.89919 49.9766 2.98926C49.8174 3.07933 49.7374 3.23962 49.7373 3.46973C49.7373 3.70006 49.8173 3.86104 49.9766 3.95117C50.1457 4.04122 50.3596 4.08589 50.6182 4.08594H51.6934C51.952 4.08594 52.1611 4.04119 52.3203 3.95117C52.4895 3.86104 52.5742 3.70006 52.5742 3.46973C52.5741 3.23962 52.4894 3.07933 52.3203 2.98926C52.1611 2.89922 51.952 2.85449 51.6934 2.85449H50.6182Z" fill="url(#paint0_linear_764_20336)"/>
<defs>
<linearGradient id="paint0_linear_764_20336" x1="0.00585938" y1="7" x2="76" y2="7" gradientUnits="userSpaceOnUse">
<stop stop-color="#00802B"/>
<stop offset="0.711538" stop-color="#FF8F1E"/>
</linearGradient>
</defs>
</svg>
