<svg width="189" height="18" fill="none" xmlns="http://www.w3.org/2000/svg"><path d="M10.336 5.701v1.053H1.928V3.09h1.271V5.7h7.137zM.437 8.873V7.834h11.211v1.039H.438zm1.368 1.996V9.857h8.435v2.995H3.13v1.134h7.534v1.026H1.832v-3.117h7.123v-1.026h-7.15zM23.72 8.955v1.066H12.55V8.955h4.935v-1.23h-3.472V3.172h1.285V4.47h5.674v-1.3h1.299v4.554h-3.5v1.23h4.949zm-9.83 6.057v-3.979h8.463v3.979H13.89zm1.285-1.053h5.92v-1.9h-5.92v1.9zm.123-7.273h5.674v-1.23h-5.674v1.23zm12.674-2.858c1.12.007 2.037.643 2.577 1.75h3.028V2.912h1.285V15.19h-1.285v-4.703h-2.94c-.526 1.23-1.483 1.949-2.665 1.942-1.825.007-3.117-1.661-3.104-4.307-.014-2.618 1.279-4.286 3.104-4.293zM26.1 8.121c.006 1.948.765 3.145 1.873 3.145 1.107 0 1.866-1.197 1.873-3.145-.007-1.92-.766-3.124-1.873-3.13-1.108.006-1.867 1.21-1.873 3.13zm4.819-1.476c.096.45.157.943.157 1.476 0 .465-.04.896-.123 1.299h2.625V6.645h-2.66zm17.028 2.543v1.039h-11.21v-1.04h11.21zM38.144 4.21V3.186h8.395v3.021h-7.082V7.26h7.328v.998h-8.613V5.25h7.068V4.21h-7.096zm.083 10.8v-3.786h8.326v3.787h-8.326zm1.285-1.052h5.756v-1.695h-5.756v1.695zm18.88-11.047v4.881h1.901v1.08h-1.9v6.275h-1.3V2.912h1.3zm-9.529 8.969c3.07-1.531 4.738-3.746 5.004-6.604h-4.389v-1.08h5.715c-.013 3.541-1.572 6.706-5.605 8.696l-.725-1.012zm17.664-8.764c2.762-.007 4.368.738 4.375 2.106-.007 1.374-1.613 2.119-4.375 2.119-2.761 0-4.382-.745-4.375-2.12-.007-1.367 1.614-2.112 4.375-2.105zM60.95 9.133v-1.04h11.17v1.04H60.95zm1.34 1.914v-.97h8.422v2.87h-7.137v1.094h7.479v.998h-8.75v-3.035h7.123v-.957H62.29zm1.217-5.824c-.007.758 1.073 1.148 3.021 1.148 1.962 0 3.042-.39 3.035-1.148.007-.725-1.073-1.149-3.035-1.149-1.948 0-3.028.424-3.021 1.149zm15.777-.998c0 .676-.055 1.34-.177 1.982h2.857V2.898h1.285v12.25h-1.285v-4.593h-3.295V9.488h3.295V7.246H78.86c-.697 2.276-2.283 4.252-5.168 5.66l-.683-1.039c3.151-1.552 4.723-3.773 4.97-6.603h-4.41v-1.04h5.715zm11.444-1.176c2.761-.007 4.368.752 4.375 2.105-.007 1.374-1.614 2.12-4.375 2.12-2.762 0-4.382-.746-4.375-2.12-.007-1.353 1.613-2.112 4.375-2.105zm-5.579 5.974V7.998h11.17v1.025H91.37v1.053h3.541v2.871h-7.137v1.094h7.479v.998h-8.75v-3.035h7.123v-.957h-7.137v-.97h3.582V9.022h-4.922zm2.557-3.869c-.007.76 1.073 1.142 3.022 1.149 1.962-.007 3.042-.39 3.035-1.149.007-.717-1.073-1.128-3.035-1.134-1.949.006-3.029.417-3.022 1.134z" fill="#444"/><path fill="#000" fill-opacity=".2" d="M107 3h1v12h-1z"/><path d="M118.615 12.25v-1.627l4.184-6.521h2.584v6.494h1.258v1.654h-1.258V14h-1.955v-1.75h-4.813zm2.078-1.654h2.762V6.357h-.096l-2.666 4.157v.082zm7.67 3.404l4.17-8.148v-.069h-4.853V4.102h6.986V5.81l-4.17 8.19h-2.133zm11.936-9.898V14h-2.065V6.057h-.054l-2.27 1.422V5.66l2.447-1.558h1.942zm3.978 8.886l-1.175 3.897h-1.45l.684-3.897h1.941zM146.082 14l-.014-1.49 3.555-3.268c.923-.882 1.422-1.429 1.422-2.215 0-.881-.663-1.428-1.572-1.422-.93-.006-1.538.582-1.532 1.532h-1.955c-.007-1.935 1.429-3.172 3.514-3.172 2.119 0 3.527 1.21 3.527 2.926 0 1.128-.547 2.05-2.584 3.896l-1.504 1.463v.055h4.225V14h-7.082zm12.209.137c-2.174 0-3.732-1.197-3.773-2.926h2.078c.034.738.752 1.224 1.709 1.23.984-.006 1.688-.553 1.681-1.353.007-.807-.711-1.374-1.873-1.381h-.916V8.189h.916c.978 0 1.661-.533 1.655-1.312.006-.759-.575-1.278-1.45-1.272-.875-.006-1.592.486-1.627 1.245h-1.968c.034-1.703 1.565-2.885 3.595-2.885 2.065 0 3.439 1.223 3.432 2.789.007 1.107-.766 1.893-1.873 2.092v.082c1.456.177 2.256 1.06 2.242 2.297.014 1.695-1.593 2.912-3.828 2.912zm5.113-1.887v-1.627l4.184-6.521h2.584v6.494h1.258v1.654h-1.258V14h-1.955v-1.75h-4.813zm2.078-1.654h2.762V6.357h-.096l-2.666 4.157v.082z" fill="#F47A00"/><rect x="175" y="2" width="14" height="14" rx="7" fill="#F47A00"/><path d="M182.27 10.694h-1.415v2.059h-1.626V5.36h3.041c.619 0 1.158.11 1.615.328.458.218.81.528 1.056.929.253.401.38.876.38 1.425 0 .55-.127 1.025-.38 1.426a2.457 2.457 0 01-1.066.908l1.573 2.376h-1.742l-1.363-2.06h-.073zm-.096-1.362c.486 0 .856-.113 1.109-.338.261-.226.391-.542.391-.95 0-.409-.127-.726-.38-.951-.254-.225-.627-.338-1.12-.338h-1.319v2.577h1.319z" fill="#fff"/></svg>