<svg width="40" height="40" fill="none" xmlns="http://www.w3.org/2000/svg"><path d="M9.684 19.003a1 1 0 100 2v-2zm11.023 1.704a1 1 0 000-1.414l-6.367-6.361a1 1 0 10-1.414 1.414l5.66 5.655-5.654 5.659a1 1 0 101.414 1.414l6.361-6.367zm-11.023-.704v1l6.274-.001L18.807 21H20v-2h-1.194l-2.849.002-6.273.001v1z" fill="#222"/><path d="M25.309 9.854A6 6 0 0131 15.846v8.307l-.008.309a6 6 0 01-5.683 5.683l-.309.008h-6.692v-2H25a4 4 0 004-4v-8.307a4 4 0 00-3.794-3.995L25 11.846h-6.692v-2H25l.309.008z" fill="#222"/></svg>