<svg width="23" height="12" fill="none" xmlns="http://www.w3.org/2000/svg"><path d="M22.785 4.368c0 .746-.152 1.448-.457 2.106A3.769 3.769 0 0121 8.053L23 12h-3.398L17.91 8.737h-2.699V12h-3.303V0h6.674c.69 0 1.293.123 1.813.368.528.237.967.557 1.316.961.358.403.627.868.806 1.395a5.07 5.07 0 01.268 1.644zm-4.982 1.71c.51 0 .918-.153 1.222-.46.304-.315.457-.732.457-1.25 0-.517-.153-.93-.457-1.236-.304-.316-.712-.474-1.222-.474h-2.592v3.421h2.592zM3.304 8.5c0 .237.071.43.214.579.153.14.35.21.591.21h6.11V12H2.954c-.447 0-.855-.07-1.222-.21a2.73 2.73 0 01-.926-.593 2.596 2.596 0 01-.591-.907A3.109 3.109 0 010 9.104V0h10.22v2.71H3.302v1.83h6.782v2.657H3.303V8.5z" fill="#fff"/></svg>