<svg width="76" height="14" fill="none" xmlns="http://www.w3.org/2000/svg"><path d="M3.306 0c.547 0 1.024.08 1.432.24.418.16.767.391 1.045.692.279.29.483.645.613 1.066.139.41.208.871.208 1.382v1.817h.613V.15h2.985v13.7H7.217V8.052h-.613v2.568c0 .51-.07.971-.208 1.382a2.63 2.63 0 01-.613 1.066c-.278.3-.627.532-1.045.692-.408.16-.885.24-1.432.24-.558 0-1.04-.08-1.449-.24A2.775 2.775 0 01.2 12.002a4.588 4.588 0 01-.194-1.382V3.38c0-.51.065-.971.194-1.382A2.775 2.775 0 011.857.24C2.265.08 2.748 0 3.306 0zM13.74 13.85h-2.986V.15h2.986v13.7zm15.677 0H15.385v-3.004h14.033v3.004zM36.675.15c.478 0 .915.1 1.313.301a2.8 2.8 0 011.016.826c.279.36.492.796.642 1.307.159.5.239 1.062.239 1.683 0 .62-.08 1.186-.24 1.697-.149.5-.363.931-.641 1.292-.279.36-.618.64-1.016.84a3.01 3.01 0 01-1.313.286h-.985c-.409 0-.737.12-.986.361-.239.24-.358.556-.358.946 0 .39.12.707.358.947.249.24.578.36.986.36h5.523V.15h3.434v13.7H34.556c-.548 0-1.046-.1-1.493-.3a3.166 3.166 0 01-1.15-.826 3.923 3.923 0 01-.746-1.292 5.373 5.373 0 01-.254-1.698c0-.62.085-1.182.254-1.682.18-.51.428-.946.746-1.307.319-.36.702-.636 1.15-.826.447-.2.945-.3 1.493-.3h.552c.408 0 .732-.11.971-.33.249-.231.373-.537.373-.918 0-.42-.124-.75-.373-.991-.239-.25-.563-.375-.97-.375H31.21V.15h5.464zm19.199 10.245h-3.24v3.455H49.2v-3.454h-2.612V7.54h9.286v2.854zm4.3 3.455H53.53v-2.704h3.21V.15h3.434v13.7zm15.826 0H61.966v-3.004H76v3.004zM3.306 2.854c-.21 0-.314.135-.314.406v7.48c0 .27.105.405.314.405.208 0 .313-.135.313-.405V3.26c0-.27-.105-.405-.313-.406zm15.512-.75h7.166V.15h3.434v9.194h-10.75c-.497 0-.95-.08-1.357-.24a3.146 3.146 0 01-1.03-.662 3.168 3.168 0 01-.657-1.036c-.16-.41-.24-.866-.24-1.367V.15h3.434v1.954zM76 3.154H65.4v1.984c0 .27.08.49.239.66.169.16.388.241.657.241H76v3.004H65.25c-.498 0-.95-.08-1.358-.24a3.147 3.147 0 01-1.03-.661 3.17 3.17 0 01-.657-1.037c-.16-.41-.24-.866-.24-1.367V.15H76v3.004zM51.62.15c.636 0 1.224.06 1.76.181.538.12 1 .315 1.389.585.398.26.706.601.925 1.022.22.42.33.931.33 1.532 0 .6-.11 1.111-.33 1.532a2.8 2.8 0 01-.925 1.037 4.06 4.06 0 01-1.388.57 8.09 8.09 0 01-1.762.181h-.926c-.637 0-1.224-.06-1.761-.18a4.225 4.225 0 01-1.404-.57 2.85 2.85 0 01-.91-1.038c-.22-.42-.329-.932-.329-1.532 0-.601.11-1.112.328-1.533.22-.42.523-.76.911-1.021.398-.27.866-.465 1.404-.585a8.075 8.075 0 011.761-.18h.926zM18.817 5.738c0 .27.08.491.24.661.169.16.387.24.656.24h6.27V4.808h-7.166v.931zm31.8-2.884c-.258 0-.472.045-.641.135-.16.09-.24.25-.24.48 0 .231.08.392.24.482.169.09.383.135.641.135h1.075c.259 0 .468-.045.627-.135.17-.09.254-.25.254-.481 0-.23-.085-.39-.254-.48-.159-.09-.368-.136-.627-.136h-1.075z" fill="url(#paint0_linear_764_20336)"/><defs><linearGradient id="paint0_linear_764_20336" x1=".006" y1="7" x2="76" y2="7" gradientUnits="userSpaceOnUse"><stop stop-color="#00802B"/><stop offset=".712" stop-color="#FF8F1E"/></linearGradient></defs></svg>