<svg width="33" height="33" fill="none" xmlns="http://www.w3.org/2000/svg"><path d="M16.5 0a16.43 16.43 0 0110.634 3.885h-6.457v12h3.239v-3.263h2.648l1.659 3.263h3.33l-1.961-3.947a3.752 3.752 0 001.303-1.58c.178-.391.3-.799.373-1.221A16.43 16.43 0 0133 16.5C33 25.613 25.613 33 16.5 33S0 25.613 0 16.5 7.387 0 16.5 0zM9 3.885v9.105c0 .439.07.833.21 1.184.141.36.334.662.58.908.255.254.558.451.91.592.36.14.759.21 1.198.21h7.123v-2.71H13.03a.811.811 0 01-.579-.21.81.81 0 01-.21-.58v-1.302h6.65V8.424h-6.65V6.596h6.781V3.885H9zm17.458 2.658c.5 0 .9.158 1.198.474.299.307.448.719.448 1.236s-.15.934-.448 1.25c-.298.307-.698.46-1.198.46h-2.542v-3.42h2.542z" fill="#00802B"/></svg>